<!--?xml version="1.0" encoding="utf-8"?-->
<!-- Generator: Adobe Illustrator 17.1.0, SVG Export Plug-In . SVG Version: 6.00 Build 0)  -->

<svg version="1.1" xmlns="http://www.w3.org/2000/svg" xmlns:xlink="http://www.w3.org/1999/xlink" x="0px" y="0px" viewBox="180 98.9 380 223" enable-background="new 180 98.9 380 223" xml:space="preserve" class="" style="" id="signature">
<path fill="none" stroke="#000000" stroke-width="3.623" stroke-linecap="round" d="M473.2,105.5c-7.6-0.9-7.5,0-15,0" class="BDmEQQPy_0"></path>
<path fill="none" stroke="#000000" stroke-width="2.466" stroke-linecap="round" d="M458.2,105.5c-12.5,2.5-12.6,1.6-25,5" class="BDmEQQPy_1"></path>
<path fill="none" stroke="#000000" stroke-width="1.166" stroke-linecap="round" d="M433.2,110.5c-41.1,7.7-41,8-82,16" class="BDmEQQPy_2"></path>
<path fill="none" stroke="#000000" stroke-width="1.125" stroke-linecap="round" d="M351.2,126.5c-38.3,5.2-37.6,7.7-75,16" class="BDmEQQPy_3"></path>
<path fill="none" stroke="#000000" stroke-width="1.127" stroke-linecap="round" d="M276.2,142.5c-32.2,9.1-31.3,9.2-61,24" class="BDmEQQPy_4"></path>
<path fill="none" stroke="#000000" stroke-width="1.535" stroke-linecap="round" d="M215.2,166.5c-17.1,9-15.7,8.1-28,22" class="BDmEQQPy_5"></path>
<path fill="none" stroke="#000000" stroke-width="2.27" stroke-linecap="round" d="M187.2,188.5c-7.5,10.6-5.1,6-4,16" class="BDmEQQPy_6"></path>
<path fill="none" stroke="#000000" stroke-width="2.286" stroke-linecap="round" d="M183.2,204.5c9.8,7.6,5,7.6,21,10" class="BDmEQQPy_7"></path>
<path fill="none" stroke="#000000" stroke-width="1.727" stroke-linecap="round" d="M204.2,214.5c22,2.8,21.3,4.6,44,4" class="BDmEQQPy_8"></path>
<path fill="none" stroke="#000000" stroke-width="1.256" stroke-linecap="round" d="M248.2,218.5c34,1.6,34,1.8,68,2" class="BDmEQQPy_9"></path>
<path fill="none" stroke="#000000" stroke-width="1.125" stroke-linecap="round" d="M316.2,220.5c45,0,45,0.6,90,0" class="BDmEQQPy_10"></path>
<path fill="none" stroke="#000000" stroke-width="1.125" stroke-linecap="round" d="M406.2,220.5c40.5-0.9,40.5,0,81,0" class="BDmEQQPy_11"></path>
<path fill="none" stroke="#000000" stroke-width="1.198" stroke-linecap="round" d="M487.2,220.5c26.7,0.3,26.5,0.6,53,3" class="BDmEQQPy_12"></path>
<path fill="none" stroke="#000000" stroke-width="2.077" stroke-linecap="round" d="M540.2,223.5c11.7,1.7,7.2,0.8,14,4" class="BDmEQQPy_13"></path>
<path fill="none" stroke="#000000" stroke-width="3.047" stroke-linecap="round" d="M554.2,227.5c-3.4,1.8,1.2,1.2-7,3" class="BDmEQQPy_14"></path>
<path fill="none" stroke="#000000" stroke-width="2.629" stroke-linecap="round" d="M547.2,230.5c-11.6,3.2-11.4,3.8-23,7" class="BDmEQQPy_15"></path>
<path fill="none" stroke="#000000" stroke-width="1.76" stroke-linecap="round" d="M524.2,237.5c-20,7-20.1,6.7-40,14" class="BDmEQQPy_16"></path>
<path fill="none" stroke="#000000" stroke-width="1.285" stroke-linecap="round" d="M484.2,251.5c-32.4,13.5-33,11.5-66,23" class="BDmEQQPy_17"></path>
<path fill="none" stroke="#000000" stroke-width="1.125" stroke-linecap="round" d="M418.2,274.5c-34.2,9.4-33.9,9.5-69,15" class="BDmEQQPy_18"></path>
<path fill="none" stroke="#000000" stroke-width="1.278" stroke-linecap="round" d="M349.2,289.5c-24,3.7-23.7,3.9-48,4" class="BDmEQQPy_19"></path>
<path fill="none" stroke="#000000" stroke-width="1.753" stroke-linecap="round" d="M301.2,293.5c-13.6-1-13.5,0.2-27-3" class="BDmEQQPy_20"></path>
<path fill="none" stroke="#000000" stroke-width="2.867" stroke-linecap="round" d="M274.2,290.5c-5.9-0.1-3.6-0.5-7-2" class="BDmEQQPy_21"></path>
<path fill="none" stroke="#000000" stroke-width="3.679" stroke-linecap="round" d="M267.2,288.5c0.7-3.4-0.9-1.6,3-5" class="BDmEQQPy_22"></path>
<path fill="none" stroke="#000000" stroke-width="2.754" stroke-linecap="round" d="M270.2,283.5c9.1-6,8.7-5.9,19-10" class="BDmEQQPy_23"></path>
<path fill="none" stroke="#000000" stroke-width="2.119" stroke-linecap="round" d="M289.2,273.5c15.2-6.3,15.1-6,31-10" class="BDmEQQPy_24"></path>
<path fill="none" stroke="#000000" stroke-width="1.903" stroke-linecap="round" d="M320.2,263.5c16.4-3.4,16.2-3.8,33-5" class="BDmEQQPy_25"></path>
<path fill="none" stroke="#000000" stroke-width="1.911" stroke-linecap="round" d="M353.2,258.5c16.8-3,15.4-1.4,31-1" class="BDmEQQPy_26"></path>
<path fill="none" stroke="#000000" stroke-width="3.24" stroke-linecap="round" d="M384.2,257.5c4.5,2.8,3.3,0.5,4,6" class="BDmEQQPy_27"></path>
<path fill="none" stroke="#000000" stroke-width="3.016" stroke-linecap="round" d="M388.2,263.5c-3.4,7-1,6.8-7,14" class="BDmEQQPy_28"></path>
<path fill="none" stroke="#000000" stroke-width="2.742" stroke-linecap="round" d="M381.2,277.5c-4.4,8.6-4.4,8.5-9,17" class="BDmEQQPy_29"></path>
<path fill="none" stroke="#000000" stroke-width="2.716" stroke-linecap="round" d="M372.2,294.5c-5.1,7.8-4.4,8.1-9,16" class="BDmEQQPy_30"></path>
<path fill="none" stroke="#000000" stroke-width="3.642" stroke-linecap="round" d="M363.2,310.5c-2.4,5-1.1,2.3-1,5" class="BDmEQQPy_31"></path>
<path fill="none" stroke="#000000" stroke-width="4.194" stroke-linecap="round" d="M362.2,315.5c5.1-2.3,3.1,0,10-5" class="BDmEQQPy_32"></path>
<path fill="none" stroke="#000000" stroke-width="3.773" stroke-linecap="round" d="M372.2,310.5c4.1-2.4,4.1-2.3,8-5" class="BDmEQQPy_33"></path>
<path fill="none" stroke="#000000" stroke-width="2.957" stroke-linecap="round" d="M380.2,305.5c7.8-5.9,8.1-5.4,16-11" class="BDmEQQPy_34"></path>
<path fill="none" stroke="#000000" stroke-width="2.655" stroke-linecap="round" d="M396.2,294.5c8.9-5.2,8.8-5.4,18-10" class="BDmEQQPy_35"></path>
<path fill="none" stroke="#000000" stroke-width="3.87" stroke-linecap="round" d="M414.2,284.5c3.5-2.8,2.4-1.2,5-2" class="BDmEQQPy_36"></path>
<path fill="none" stroke="#000000" stroke-width="4.664" stroke-linecap="round" d="M419.2,282.5c0.5,2.5,1.5,0.7,1,5" class="BDmEQQPy_37"></path>
<path fill="none" stroke="#000000" stroke-width="4.332" stroke-linecap="round" d="M420.2,287.5c0,3.1,0.5,3,1,6" class="BDmEQQPy_38"></path>
<path fill="none" stroke="#000000" stroke-width="4.582" stroke-linecap="round" d="M421.2,293.5c0.7,4,1,3.1,3,6" class="BDmEQQPy_39"></path>
<path fill="none" stroke="#000000" stroke-width="4.794" stroke-linecap="round" d="M424.2,299.5c2.6,1.7,1.7,1.5,5,1" class="BDmEQQPy_40"></path>
<path fill="none" stroke="#000000" stroke-width="3.29" stroke-linecap="round" d="M429.2,300.5c15.8-4.8,15.6-4.3,31-11" class="BDmEQQPy_41"></path>
<path fill="none" stroke="#000000" stroke-width="3.513" stroke-linecap="round" d="M460.2,289.5c5.4-5.6,4.3-1.8,8-5" class="BDmEQQPy_42"></path>
<path fill="none" stroke="#000000" stroke-width="4.544" stroke-linecap="round" d="M468.2,284.5c-1,4.7,1.9,0.4,1,7" class="BDmEQQPy_43"></path>
<path fill="none" stroke="#000000" stroke-width="4.927" stroke-linecap="round" d="M469.2,291.5c4.4,0.8,2.5,2.7,8,3" class="BDmEQQPy_44"></path>
<style data-made-with="vivus-instant">.BDmEQQPy_0{stroke-dasharray:16 18;stroke-dashoffset:17;}.start .BDmEQQPy_0{animation:BDmEQQPy_draw 18ms ease 0ms forwards;}.BDmEQQPy_1{stroke-dasharray:26 28;stroke-dashoffset:27;}.start .BDmEQQPy_1{animation:BDmEQQPy_draw 28ms ease 18ms forwards;}.BDmEQQPy_2{stroke-dasharray:84 86;stroke-dashoffset:85;}.start .BDmEQQPy_2{animation:BDmEQQPy_draw 90ms ease 47ms forwards;}.BDmEQQPy_3{stroke-dasharray:77 79;stroke-dashoffset:78;}.start .BDmEQQPy_3{animation:BDmEQQPy_draw 83ms ease 137ms forwards;}.BDmEQQPy_4{stroke-dasharray:66 68;stroke-dashoffset:67;}.start .BDmEQQPy_4{animation:BDmEQQPy_draw 71ms ease 221ms forwards;}.BDmEQQPy_5{stroke-dasharray:37 39;stroke-dashoffset:38;}.start .BDmEQQPy_5{animation:BDmEQQPy_draw 40ms ease 292ms forwards;}.BDmEQQPy_6{stroke-dasharray:18 20;stroke-dashoffset:19;}.start .BDmEQQPy_6{animation:BDmEQQPy_draw 20ms ease 333ms forwards;}.BDmEQQPy_7{stroke-dasharray:24 26;stroke-dashoffset:25;}.start .BDmEQQPy_7{animation:BDmEQQPy_draw 26ms ease 353ms forwards;}.BDmEQQPy_8{stroke-dasharray:45 47;stroke-dashoffset:46;}.start .BDmEQQPy_8{animation:BDmEQQPy_draw 49ms ease 380ms forwards;}.BDmEQQPy_9{stroke-dasharray:69 71;stroke-dashoffset:70;}.start .BDmEQQPy_9{animation:BDmEQQPy_draw 74ms ease 429ms forwards;}.BDmEQQPy_10{stroke-dasharray:91 93;stroke-dashoffset:92;}.start .BDmEQQPy_10{animation:BDmEQQPy_draw 98ms ease 504ms forwards;}.BDmEQQPy_11{stroke-dasharray:82 84;stroke-dashoffset:83;}.start .BDmEQQPy_11{animation:BDmEQQPy_draw 88ms ease 602ms forwards;}.BDmEQQPy_12{stroke-dasharray:54 56;stroke-dashoffset:55;}.start .BDmEQQPy_12{animation:BDmEQQPy_draw 58ms ease 691ms forwards;}.BDmEQQPy_13{stroke-dasharray:15 17;stroke-dashoffset:16;}.start .BDmEQQPy_13{animation:BDmEQQPy_draw 17ms ease 750ms forwards;}.BDmEQQPy_14{stroke-dasharray:8 10;stroke-dashoffset:9;}.start .BDmEQQPy_14{animation:BDmEQQPy_draw 9ms ease 767ms forwards;}.BDmEQQPy_15{stroke-dasharray:25 27;stroke-dashoffset:26;}.start .BDmEQQPy_15{animation:BDmEQQPy_draw 27ms ease 776ms forwards;}.BDmEQQPy_16{stroke-dasharray:43 45;stroke-dashoffset:44;}.start .BDmEQQPy_16{animation:BDmEQQPy_draw 47ms ease 804ms forwards;}.BDmEQQPy_17{stroke-dasharray:70 72;stroke-dashoffset:71;}.start .BDmEQQPy_17{animation:BDmEQQPy_draw 75ms ease 851ms forwards;}.BDmEQQPy_18{stroke-dasharray:71 73;stroke-dashoffset:72;}.start .BDmEQQPy_18{animation:BDmEQQPy_draw 76ms ease 927ms forwards;}.BDmEQQPy_19{stroke-dasharray:49 51;stroke-dashoffset:50;}.start .BDmEQQPy_19{animation:BDmEQQPy_draw 53ms ease 1004ms forwards;}.BDmEQQPy_20{stroke-dasharray:28 30;stroke-dashoffset:29;}.start .BDmEQQPy_20{animation:BDmEQQPy_draw 30ms ease 1057ms forwards;}.BDmEQQPy_21{stroke-dasharray:8 10;stroke-dashoffset:9;}.start .BDmEQQPy_21{animation:BDmEQQPy_draw 9ms ease 1088ms forwards;}.BDmEQQPy_22{stroke-dasharray:7 9;stroke-dashoffset:8;}.start .BDmEQQPy_22{animation:BDmEQQPy_draw 8ms ease 1098ms forwards;}.BDmEQQPy_23{stroke-dasharray:22 24;stroke-dashoffset:23;}.start .BDmEQQPy_23{animation:BDmEQQPy_draw 24ms ease 1106ms forwards;}.BDmEQQPy_24{stroke-dasharray:33 35;stroke-dashoffset:34;}.start .BDmEQQPy_24{animation:BDmEQQPy_draw 36ms ease 1131ms forwards;}.BDmEQQPy_25{stroke-dasharray:34 36;stroke-dashoffset:35;}.start .BDmEQQPy_25{animation:BDmEQQPy_draw 37ms ease 1167ms forwards;}.BDmEQQPy_26{stroke-dasharray:32 34;stroke-dashoffset:33;}.start .BDmEQQPy_26{animation:BDmEQQPy_draw 35ms ease 1205ms forwards;}.BDmEQQPy_27{stroke-dasharray:9 11;stroke-dashoffset:10;}.start .BDmEQQPy_27{animation:BDmEQQPy_draw 10ms ease 1240ms forwards;}.BDmEQQPy_28{stroke-dasharray:16 18;stroke-dashoffset:17;}.start .BDmEQQPy_28{animation:BDmEQQPy_draw 18ms ease 1251ms forwards;}.BDmEQQPy_29{stroke-dasharray:20 22;stroke-dashoffset:21;}.start .BDmEQQPy_29{animation:BDmEQQPy_draw 22ms ease 1269ms forwards;}.BDmEQQPy_30{stroke-dasharray:19 21;stroke-dashoffset:20;}.start .BDmEQQPy_30{animation:BDmEQQPy_draw 21ms ease 1291ms forwards;}.BDmEQQPy_31{stroke-dasharray:6 8;stroke-dashoffset:7;}.start .BDmEQQPy_31{animation:BDmEQQPy_draw 7ms ease 1313ms forwards;}.BDmEQQPy_32{stroke-dasharray:12 14;stroke-dashoffset:13;}.start .BDmEQQPy_32{animation:BDmEQQPy_draw 13ms ease 1320ms forwards;}.BDmEQQPy_33{stroke-dasharray:10 12;stroke-dashoffset:11;}.start .BDmEQQPy_33{animation:BDmEQQPy_draw 11ms ease 1334ms forwards;}.BDmEQQPy_34{stroke-dasharray:20 22;stroke-dashoffset:21;}.start .BDmEQQPy_34{animation:BDmEQQPy_draw 22ms ease 1346ms forwards;}.BDmEQQPy_35{stroke-dasharray:21 23;stroke-dashoffset:22;}.start .BDmEQQPy_35{animation:BDmEQQPy_draw 23ms ease 1368ms forwards;}.BDmEQQPy_36{stroke-dasharray:6 8;stroke-dashoffset:7;}.start .BDmEQQPy_36{animation:BDmEQQPy_draw 7ms ease 1392ms forwards;}.BDmEQQPy_37{stroke-dasharray:6 8;stroke-dashoffset:7;}.start .BDmEQQPy_37{animation:BDmEQQPy_draw 7ms ease 1399ms forwards;}.BDmEQQPy_38{stroke-dasharray:7 9;stroke-dashoffset:8;}.start .BDmEQQPy_38{animation:BDmEQQPy_draw 8ms ease 1407ms forwards;}.BDmEQQPy_39{stroke-dasharray:7 9;stroke-dashoffset:8;}.start .BDmEQQPy_39{animation:BDmEQQPy_draw 8ms ease 1415ms forwards;}.BDmEQQPy_40{stroke-dasharray:6 8;stroke-dashoffset:7;}.start .BDmEQQPy_40{animation:BDmEQQPy_draw 7ms ease 1424ms forwards;}.BDmEQQPy_41{stroke-dasharray:33 35;stroke-dashoffset:34;}.start .BDmEQQPy_41{animation:BDmEQQPy_draw 36ms ease 1431ms forwards;}.BDmEQQPy_42{stroke-dasharray:10 12;stroke-dashoffset:11;}.start .BDmEQQPy_42{animation:BDmEQQPy_draw 11ms ease 1467ms forwards;}.BDmEQQPy_43{stroke-dasharray:8 10;stroke-dashoffset:9;}.start .BDmEQQPy_43{animation:BDmEQQPy_draw 9ms ease 1479ms forwards;}.BDmEQQPy_44{stroke-dasharray:9 11;stroke-dashoffset:10;}.start .BDmEQQPy_44{animation:BDmEQQPy_draw 10ms ease 1489ms forwards;}@keyframes BDmEQQPy_draw{100%{stroke-dashoffset:0;}}@keyframes BDmEQQPy_fade{0%{stroke-opacity:1;}92.98245614035088%{stroke-opacity:1;}100%{stroke-opacity:0;}}</style></svg>
