<?xml version="1.0" standalone="no"?>
<!DOCTYPE svg PUBLIC "-//W3C//DTD SVG 20010904//EN"
 "http://www.w3.org/TR/2001/REC-SVG-20010904/DTD/svg10.dtd">
<svg version="1.0" xmlns="http://www.w3.org/2000/svg"
 width="411.000000pt" height="411.000000pt" viewBox="0 0 411.000000 411.000000"
 preserveAspectRatio="xMidYMid meet">
<metadata>
Created by potrace 1.11, written by Peter Selinger 2001-2013
</metadata>
<g transform="translate(0.000000,411.000000) scale(0.100000,-0.100000)"
fill="#000000" stroke="none">
<path d="M2948 3069 c-7 -4 -44 -12 -83 -18 -38 -6 -95 -18 -125 -26 -60 -17
-167 -41 -215 -48 -16 -3 -50 -10 -75 -15 -25 -6 -61 -13 -80 -16 -55 -9 -94
-16 -110 -21 -8 -3 -33 -7 -55 -11 -22 -3 -78 -14 -125 -24 -47 -10 -98 -21
-115 -24 -16 -2 -55 -9 -85 -15 -30 -5 -77 -13 -103 -16 -101 -12 -410 -84
-727 -169 -138 -37 -260 -85 -450 -179 -195 -96 -209 -105 -285 -180 -44 -43
-91 -96 -106 -118 -23 -36 -25 -45 -18 -86 12 -64 81 -125 157 -138 178 -30
342 -48 462 -50 80 -2 276 -6 435 -10 160 -4 747 -8 1305 -9 558 -2 1033 -6
1055 -9 22 -3 60 -8 85 -11 70 -7 182 -26 193 -33 6 -3 -106 -46 -249 -94
-331 -111 -377 -128 -509 -184 -84 -35 -178 -70 -215 -80 -34 -8 -221 -68
-305 -96 -160 -55 -425 -120 -425 -105 0 4 16 29 35 57 19 28 35 56 35 63 0 6
7 24 15 40 27 52 -1 104 -55 104 -8 0 -66 1 -127 2 -62 1 -116 -1 -121 -3 -4
-3 -39 -8 -77 -12 -230 -21 -438 -72 -660 -163 -64 -26 -175 -93 -185 -113
-25 -47 1 -64 114 -74 38 -3 72 -8 77 -11 5 -3 85 -5 178 -5 154 0 212 3 296
16 17 3 55 8 85 11 30 3 58 7 61 9 3 2 28 7 55 10 27 4 87 13 134 21 46 7 85
12 86 11 2 -2 -55 -104 -112 -199 -34 -56 -43 -101 -24 -113 14 -9 105 36 170
85 131 97 261 178 372 232 25 11 25 11 26 -21 1 -47 20 -105 42 -129 21 -23
77 -30 95 -13 6 5 37 17 70 27 89 26 228 83 247 101 18 16 42 9 35 -11 -7 -17
2 -28 40 -49 37 -20 66 -22 81 -4 15 17 3 32 -31 41 -21 5 -33 18 -47 51 -11
25 -22 45 -24 45 -8 0 -79 -41 -96 -55 -37 -31 -266 -108 -308 -103 -33 4 -52
40 -57 106 -2 25 -11 52 -20 61 -14 14 -19 14 -50 -4 -19 -11 -69 -40 -112
-64 -43 -24 -127 -76 -188 -116 -158 -104 -205 -130 -205 -113 0 7 31 67 68
133 l68 120 119 31 c244 63 287 75 338 93 29 11 106 36 172 56 124 39 245 79
280 94 62 27 91 38 205 78 234 83 480 161 585 185 41 10 78 35 70 49 -11 16
-104 39 -180 44 -44 3 -93 8 -110 10 -94 13 -437 17 -1450 20 -621 2 -1162 6
-1202 9 -39 3 -134 8 -210 10 -76 3 -154 8 -173 11 -303 50 -299 49 -352 96
-55 49 -58 88 -14 154 82 124 164 183 436 317 177 87 317 133 610 203 8 2 62
15 120 30 58 15 112 28 120 30 76 17 162 34 195 39 22 3 51 8 65 11 14 2 46 7
71 10 25 3 99 16 164 30 66 14 133 28 150 30 16 3 50 10 75 15 104 22 418 80
455 84 22 3 72 12 110 21 39 9 124 18 189 21 66 2 122 6 124 9 3 3 0 11 -7 18
-13 13 -152 18 -173 6z m-742 -1549 c22 -8 34 -18 34 -30 0 -30 -26 -92 -67
-160 -39 -64 -41 -65 -99 -76 -32 -7 -86 -15 -118 -19 -33 -3 -62 -8 -65 -9
-3 -2 -35 -7 -71 -11 -36 -4 -67 -9 -71 -10 -23 -15 -292 -24 -457 -15 -82 4
-214 32 -219 46 -5 19 90 77 210 129 151 65 369 124 522 140 33 3 80 8 104 11
25 2 46 6 48 8 10 9 219 6 249 -4z"/>
</g>
</svg>
