<?xml version="1.0" standalone="no"?>
<!DOCTYPE svg PUBLIC "-//W3C//DTD SVG 20010904//EN"
 "http://www.w3.org/TR/2001/REC-SVG-20010904/DTD/svg10.dtd">
<svg version="1.0" xmlns="http://www.w3.org/2000/svg"
 width="700.000000pt" height="700.000000pt" viewBox="0 0 700.000000 700.000000"
 preserveAspectRatio="xMidYMid meet">
<metadata>
Created by potrace 1.14, written by Peter Selinger 2001-2017
</metadata>
<g transform="translate(0.000000,700.000000) scale(0.100000,-0.100000)"
fill="#000000" stroke="none">
<path d="M580 5540 l0 -580 585 0 585 0 0 580 0 580 -585 0 -585 0 0 -580z"/>
<path d="M5250 5540 l0 -580 585 0 585 0 0 580 0 580 -585 0 -585 0 0 -580z"/>
<path d="M2920 3205 l0 -585 580 0 580 0 0 585 0 585 -580 0 -580 0 0 -585z"/>
</g>
</svg>
