<svg xmlns="http://www.w3.org/2000/svg" xmlns:xlink="http://www.w3.org/1999/xlink" viewBox="0 0 664 373" width="664" height="373"><path d="M 475.000,105.500 C 467.408,104.574 467.500,105.500 460.000,105.500" stroke-width="3.623" stroke="black" fill="none" stroke-linecap="round"></path><path d="M 460.000,105.500 C 447.509,108.045 447.408,107.074 435.000,110.500" stroke-width="2.466" stroke="black" fill="none" stroke-linecap="round"></path><path d="M 435.000,110.500 C 393.930,118.158 394.009,118.545 353.000,126.500" stroke-width="1.166" stroke="black" fill="none" stroke-linecap="round"></path><path d="M 353.000,126.500 C 314.662,131.717 315.430,134.158 278.000,142.500" stroke-width="1.125" stroke="black" fill="none" stroke-linecap="round"></path><path d="M 278.000,142.500 C 245.836,151.596 246.662,151.717 217.000,166.500" stroke-width="1.127" stroke="black" fill="none" stroke-linecap="round"></path><path d="M 217.000,166.500 C 199.935,175.514 201.336,174.596 189.000,188.500" stroke-width="1.535" stroke="black" fill="none" stroke-linecap="round"></path><path d="M 189.000,188.500 C 181.473,199.106 183.935,194.514 185.000,204.500" stroke-width="2.270" stroke="black" fill="none" stroke-linecap="round"></path><path d="M 185.000,204.500 C 194.791,212.086 189.973,212.106 206.000,214.500" stroke-width="2.286" stroke="black" fill="none" stroke-linecap="round"></path><path d="M 206.000,214.500 C 227.951,217.319 227.291,219.086 250.000,218.500" stroke-width="1.727" stroke="black" fill="none" stroke-linecap="round"></path><path d="M 250.000,218.500 C 283.992,220.070 283.951,220.319 318.000,220.500" stroke-width="1.256" stroke="black" fill="none" stroke-linecap="round"></path><path d="M 318.000,220.500 C 363.000,220.500 362.992,221.070 408.000,220.500" stroke-width="1.125" stroke="black" fill="none" stroke-linecap="round"></path><path d="M 408.000,220.500 C 448.526,219.594 448.500,220.500 489.000,220.500" stroke-width="1.125" stroke="black" fill="none" stroke-linecap="round"></path><path d="M 489.000,220.500 C 515.711,220.753 515.526,221.094 542.000,223.500" stroke-width="1.198" stroke="black" fill="none" stroke-linecap="round"></path><path d="M 542.000,223.500 C 553.702,225.202 549.211,224.253 556.000,227.500" stroke-width="2.077" stroke="black" fill="none" stroke-linecap="round"></path><path d="M 556.000,227.500 C 552.609,229.297 557.202,228.702 549.000,230.500" stroke-width="3.047" stroke="black" fill="none" stroke-linecap="round"></path><path d="M 549.000,230.500 C 537.402,233.699 537.609,234.297 526.000,237.500" stroke-width="2.629" stroke="black" fill="none" stroke-linecap="round"></path><path d="M 526.000,237.500 C 506.006,244.517 505.902,244.199 486.000,251.500" stroke-width="1.760" stroke="black" fill="none" stroke-linecap="round"></path><path d="M 486.000,251.500 C 453.577,265.049 453.006,263.017 420.000,274.500" stroke-width="1.285" stroke="black" fill="none" stroke-linecap="round"></path><path d="M 420.000,274.500 C 385.777,283.852 386.077,284.049 351.000,289.500" stroke-width="1.125" stroke="black" fill="none" stroke-linecap="round"></path><path d="M 351.000,289.500 C 326.977,293.180 327.277,293.352 303.000,293.500" stroke-width="1.278" stroke="black" fill="none" stroke-linecap="round"></path><path d="M 303.000,293.500 C 289.407,292.472 289.477,293.680 276.000,290.500" stroke-width="1.753" stroke="black" fill="none" stroke-linecap="round"></path><path d="M 276.000,290.500 C 270.111,290.443 272.407,289.972 269.000,288.500" stroke-width="2.867" stroke="black" fill="none" stroke-linecap="round"></path><path d="M 269.000,288.500 C 269.651,285.102 268.111,286.943 272.000,283.500" stroke-width="3.679" stroke="black" fill="none" stroke-linecap="round"></path><path d="M 272.000,283.500 C 281.068,277.473 280.651,277.602 291.000,273.500" stroke-width="2.754" stroke="black" fill="none" stroke-linecap="round"></path><path d="M 291.000,273.500 C 306.195,267.204 306.068,267.473 322.000,263.500" stroke-width="2.119" stroke="black" fill="none" stroke-linecap="round"></path><path d="M 322.000,263.500 C 338.413,260.055 338.195,259.704 355.000,258.500" stroke-width="1.903" stroke="black" fill="none" stroke-linecap="round"></path><path d="M 355.000,258.500 C 371.801,255.472 370.413,257.055 386.000,257.500" stroke-width="1.911" stroke="black" fill="none" stroke-linecap="round"></path><path d="M 386.000,257.500 C 390.473,260.346 389.301,257.972 390.000,263.500" stroke-width="3.240" stroke="black" fill="none" stroke-linecap="round"></path><path d="M 390.000,263.500 C 386.589,270.546 388.973,270.346 383.000,277.500" stroke-width="3.016" stroke="black" fill="none" stroke-linecap="round"></path><path d="M 383.000,277.500 C 378.605,286.057 378.589,286.046 374.000,294.500" stroke-width="2.742" stroke="black" fill="none" stroke-linecap="round"></path><path d="M 374.000,294.500 C 368.913,302.283 369.605,302.557 365.000,310.500" stroke-width="2.716" stroke="black" fill="none" stroke-linecap="round"></path><path d="M 365.000,310.500 C 362.591,315.500 363.913,312.783 364.000,315.500" stroke-width="3.642" stroke="black" fill="none" stroke-linecap="round"></path><path d="M 364.000,315.500 C 369.119,313.212 367.091,315.500 374.000,310.500" stroke-width="4.194" stroke="black" fill="none" stroke-linecap="round"></path><path d="M 374.000,310.500 C 378.076,308.116 378.119,308.212 382.000,305.500" stroke-width="3.773" stroke="black" fill="none" stroke-linecap="round"></path><path d="M 382.000,305.500 C 389.750,299.596 390.076,300.116 398.000,294.500" stroke-width="2.957" stroke="black" fill="none" stroke-linecap="round"></path><path d="M 398.000,294.500 C 406.884,289.256 406.750,289.096 416.000,284.500" stroke-width="2.655" stroke="black" fill="none" stroke-linecap="round"></path><path d="M 416.000,284.500 C 419.459,281.730 418.384,283.256 421.000,282.500" stroke-width="3.870" stroke="black" fill="none" stroke-linecap="round"></path><path d="M 421.000,282.500 C 421.544,284.992 422.459,283.230 422.000,287.500" stroke-width="4.664" stroke="black" fill="none" stroke-linecap="round"></path><path d="M 422.000,287.500 C 422.049,290.647 422.544,290.492 423.000,293.500" stroke-width="4.332" stroke="black" fill="none" stroke-linecap="round"></path><path d="M 423.000,293.500 C 423.727,297.511 424.049,296.647 426.000,299.500" stroke-width="4.582" stroke="black" fill="none" stroke-linecap="round"></path><path d="M 426.000,299.500 C 428.584,301.171 427.727,301.011 431.000,300.500" stroke-width="4.794" stroke="black" fill="none" stroke-linecap="round"></path><path d="M 431.000,300.500 C 446.846,295.717 446.584,296.171 462.000,289.500" stroke-width="3.290" stroke="black" fill="none" stroke-linecap="round"></path><path d="M 462.000,289.500 C 467.428,283.928 466.346,287.717 470.000,284.500" stroke-width="3.513" stroke="black" fill="none" stroke-linecap="round"></path><path d="M 470.000,284.500 C 468.962,289.236 471.928,284.928 471.000,291.500" stroke-width="4.544" stroke="black" fill="none" stroke-linecap="round"></path><path d="M 471.000,291.500 C 475.443,292.311 473.462,294.236 479.000,294.500" stroke-width="4.927" stroke="black" fill="none" stroke-linecap="round"></path></svg>